Coordinates
version=1
nRows=12
nColumns=24
inDegrees=yes

Units are S.I. units (second, meters, Newtons, ...)
Angles are in degrees.

endheader
time	pelvis_tilt	pelvis_list	pelvis_rotation	pelvis_tx	pelvis_ty	pelvis_tz	hip_flexion_r	hip_adduction_r	hip_rotation_r	knee_angle_r	ankle_angle_r	subtalar_angle_r	mtp_angle_r	hip_flexion_l	hip_adduction_l	hip_rotation_l	knee_angle_l	ankle_angle_l	subtalar_angle_l	mtp_angle_l	lumbar_extension	lumbar_bending	lumbar_rotation
      3.58000000	     -1.75001882	      8.14554554	     -1.89332401	     -0.39852997	      0.93510807	      0.21817665	     22.81695958	     -7.51496255	      1.22116721	    -69.06153503	      9.55458841	    -12.86090466	      0.00000000	     13.29582285	     15.61550725	      5.71291120	    -18.41096186	      8.79475452	    -22.86469880	      0.00000000	     -8.82734062	    -10.44389143	     -8.21370138
      3.58500000	     -1.62139103	      7.82658932	     -1.74508035	     -0.39175385	      0.93665539	      0.21799539	     23.29111785	     -7.16739104	      1.21244253	    -68.22028113	      9.99340118	    -12.51426645	      0.00000000	     12.30101010	     15.37458668	      6.39567183	    -17.80177143	      8.68393201	    -23.32152052	      0.00000000	     -8.98036335	    -10.01623636	     -8.38748033
      3.59000000	     -1.50246943	      7.50504203	     -1.59193302	     -0.38501995	      0.93812530	      0.21782522	     23.74634735	     -6.81898801	      1.18970770	    -67.28855265	     10.38651873	    -12.21039340	      0.00000000	     11.32781005	     15.11581573	      7.05307999	    -17.19881592	      8.57187136	    -23.76203019	      0.00000000	     -9.12776857	     -9.59094134	     -8.56045708
      3.59500000	     -1.39634335	      7.18894480	     -1.44331262	     -0.37831609	      0.93949441	      0.21765661	     24.18926748	     -6.47463966	      1.16799513	    -66.27188847	     10.73247959	    -11.96101854	      0.00000000	     10.38213158	     14.84904563	      7.67764039	    -16.60656501	      8.47838794	    -24.17702228	      0.00000000	     -9.25748384	     -9.16353699	     -8.73555536
      3.60000000	     -1.31463479	      6.87567389	     -1.28618546	     -0.37164781	      0.94076304	      0.21751137	     24.62147400	     -6.13210765	      1.13523612	    -65.15736837	     11.05496073	    -11.77903488	      0.00000000	      9.48460835	     14.56911533	      8.24624969	    -16.03948040	      8.39240077	    -24.54186351	      0.00000000	     -9.36518594	     -8.74767283	     -8.88908054
      3.60500000	     -1.21672121	      6.57522798	     -1.13855940	     -0.36500218	      0.94194911	      0.21735416	     25.01753800	     -5.80675040	      1.10649652	    -63.97436717	     11.30547166	    -11.64331555	      0.00000000	      8.56728647	     14.29653733	      8.83445796	    -15.45495439	      8.30361502	    -24.94874650	      0.00000000	     -9.49319944	     -8.33669624	     -9.08435554
      3.61000000	     -1.14425741	      6.28530997	     -0.98793839	     -0.35837728	      0.94300513	      0.21720695	     25.40738572	     -5.49285332	      1.07329137	    -62.70371067	     11.53141616	    -11.58027886	      0.00000000	      7.69967817	     14.02318890	      9.36319061	    -14.89742925	      8.24049053	    -25.31830915	      0.00000000	     -9.59183379	     -7.94763727	     -9.26197014
      3.61500000	     -1.07202907	      6.00764875	     -0.83199672	     -0.35177626	      0.94398570	      0.21710672	     25.76341336	     -5.18796979	      1.04427492	    -61.34794525	     11.71254361	    -11.56569082	      0.00000000	      6.84216677	     13.75075462	      9.87939542	    -14.34621975	      8.15762808	    -25.68464786	      0.00000000	     -9.69653015	     -7.57916204	     -9.45449973
      3.62000000	     -1.01181872	      5.74871922	     -0.68319473	     -0.34518523	      0.94483610	      0.21698068	     26.10585146	     -4.90838039	      1.01699084	    -59.91754750	     11.85935404	    -11.61257232	      0.00000000	      6.01341118	     13.49250506	     10.35712955	    -13.81308575	      8.09640866	    -26.03582338	      0.00000000	     -9.78436306	     -7.22308858	     -9.64410493
      3.62500000	     -0.95302288	      5.50624246	     -0.53227112	     -0.33860042	      0.94559108	      0.21686779	     26.41409404	     -4.64768377	      0.99280437	    -58.40365304	     11.97565896	    -11.70250442	      0.00000000	      5.19626074	     13.24491254	     10.81296103	    -13.28949109	      8.03327268	    -26.39270636	      0.00000000	     -9.87109130	     -6.89065283	     -9.84046274
      3.63000000	     -0.90350473	      5.27974638	     -0.38239948	     -0.33201622	      0.94623090	      0.21675920	     26.70074061	     -4.40759562	      0.96892250	    -56.81479192	     12.05132153	    -11.84025908	      0.00000000	      4.39892531	     13.00747236	     11.24388832	    -12.77649291	      7.98425074	    -26.73790540	      0.00000000	     -9.94623393	     -6.57473377	    -10.03329005
      3.63500000	     -0.86444338	      5.07393067	     -0.23557916	     -0.32544182	      0.94675492	      0.21667192	     26.96990469	     -4.19194280	      0.94774038	    -55.15656218	     12.08993653	    -12.00818877	      0.00000000	      3.62456508	     12.78484282	     11.64149082	    -12.27755370	      7.94813712	    -27.06426837	      0.00000000	    -10.01211276	     -6.28830776	    -10.21883596
